<svg width="136" height="80" viewBox="0 0 136 80" fill="none" xmlns="http://www.w3.org/2000/svg">
<path d="M110.057 74.0549C112.062 76.1354 114.873 77.434 117.984 77.434C121.095 77.434 123.906 76.1354 125.911 74.0549L128.268 79.9846H135.372L119.545 42.4111H116.423L100.595 79.9846H107.7L110.057 74.0549ZM113.685 64.9246L117.984 54.1047L122.283 64.9246C122.49 65.4445 122.602 66.0172 122.602 66.6126C122.602 69.1632 120.534 71.2308 117.984 71.2308C115.434 71.2308 113.366 69.1632 113.366 66.6126C113.366 66.0172 113.478 65.4445 113.685 64.9246Z" fill="#0B4F92"/>
<path d="M91.1665 65.9475C95.9458 63.9941 98.3294 59.8775 98.3294 54.495C98.3294 46.5265 93.3118 42.4116 83.5781 42.4116H72.48V79.9846H79.2171V67.198H79.7321C86.5222 67.198 90.5687 75.0993 91.9541 80H99.335C97.9188 73.9629 94.9436 69.0823 91.1665 65.9475ZM84.1405 61.2462H79.2171V48.5432H84.0902C88.6795 48.5432 91.542 50.4099 91.542 54.7472C91.542 59.034 88.6795 61.2462 84.1405 61.2462Z" fill="#0B4F92"/>
<path d="M62.7424 59.4346C64.5059 57.806 65.5687 55.3312 65.5687 52.2827C65.5687 46.6842 61.2314 42.4116 53.0101 42.4116H39.9346V79.9851H55.623C64.3986 79.9851 68.6352 74.4562 68.6352 68.613C68.6352 64.7332 66.8204 61.0962 62.7424 59.4346ZM46.6861 48.5124H53.2692C56.9508 48.5124 58.8103 50.2508 58.8103 53.1761C58.8103 55.9498 57.0016 57.7947 53.0673 57.7947H46.6861V48.5124ZM55.1694 73.8031H46.6861V63.5077H55.5798C59.362 63.5077 61.675 65.4098 61.675 68.6377C61.675 71.6636 59.406 73.8031 55.1694 73.8031Z" fill="#0B4F92"/>
<path d="M27.7173 79.9851H34.4541V42.4116H27.7173V79.9851Z" fill="#0B4F92"/>
<path d="M7.0728 42.4116H0.335968V79.9851H24.1904V73.8031H7.0728V42.4116Z" fill="#0B4F92"/>
<path d="M72.5375 0.449745V22.9901C72.5375 32.0681 78.1072 38.4732 87.4371 38.4732C96.8685 38.4732 102.639 32.0681 102.639 22.9901V0.449745H95.9025V23.3641C95.9025 28.9624 92.4803 32.2406 87.4371 32.2406C82.4949 32.2406 79.2743 28.9624 79.2743 23.4147V0.449745H72.5375Z" fill="#0B4F92"/>
<path d="M107.7 38.0235L110.056 32.0932C112.061 34.174 114.873 35.4724 117.983 35.4724C121.094 35.4724 123.906 34.174 125.911 32.0932L128.267 38.0235H135.372L119.544 0.449745H116.423L100.595 38.0235H107.7ZM113.684 22.9632L117.983 12.143L122.283 22.9632C122.489 23.4829 122.601 24.0556 122.601 24.6515C122.601 27.2016 120.534 29.2691 117.983 29.2691C115.433 29.2691 113.366 27.2016 113.366 24.6515C113.366 24.0556 113.478 23.4829 113.684 22.9632Z" fill="#0B4F92"/>
<path d="M67.3388 28.9898C68.9092 26.1686 69.7953 22.8508 69.7953 19.212C69.7953 8.14912 61.5738 0 50.6304 0C39.7362 0 31.4648 8.14912 31.4648 19.212C31.4648 30.3243 39.6856 38.4732 50.6304 38.4732C55.6098 38.4732 60.0215 36.782 63.3554 33.8966C65.5107 36.4056 68.2322 38.4732 72.4788 38.4732V32.2873C70.54 32.2873 68.9772 30.8863 67.3388 28.9898ZM50.6304 32.2404C47.2307 32.2404 44.0974 30.9835 41.8387 28.6686C44.0894 26.3671 47.2146 25.1063 50.6297 25.1063C54.6744 25.1063 57.3386 26.687 59.3234 28.7602C57.0703 31.0121 53.9761 32.2404 50.6304 32.2404ZM62.42 23.3814C59.7377 20.8844 56.2175 18.9199 50.6297 18.9199C45.7989 18.9199 41.9062 20.5244 38.8208 23.2729C38.4864 22.0317 38.3031 20.6769 38.3031 19.212C38.3031 11.112 43.9082 6.23283 50.6304 6.23283C57.3013 6.23283 62.9717 11.112 62.9717 19.212C62.9717 20.7167 62.7771 22.1097 62.42 23.3814Z" fill="#0B4F92"/>
<path d="M9.4612 32.0935C11.4665 34.174 14.2781 35.4726 17.3886 35.4726C20.4994 35.4726 23.3108 34.174 25.3163 32.0935L27.6721 38.0237H34.7768L18.9498 0.449745H15.8277L0 38.0237H7.1047L9.4612 32.0935ZM13.0894 22.9632L17.3886 12.1433L21.6878 22.9632C21.8944 23.4831 22.0063 24.0558 22.0063 24.6517C22.0063 27.2016 19.939 29.2694 17.3886 29.2694C14.8383 29.2694 12.771 27.2016 12.771 24.6517C12.771 24.0558 12.8829 23.4831 13.0894 22.9632Z" fill="#0B4F92"/>
</svg>
